<svg width="128mm" height="128mm" version="1.1" viewBox="0 0 128 128" xmlns="http://www.w3.org/2000/svg">
 <g stroke-linecap="round" stroke-linejoin="round">
  <g fill="#4674e5">
   <circle cx="20.5" cy="20.5" r="4.5" stroke-width=".12775"/>
   <circle cx="84.5" cy="20.5" r="4.5" stroke-width=".12775"/>
   <g stroke-width=".070975">
    <circle cx="114.5" cy="18.5" r="2.5"/>
    <circle cx="50.5" cy="18.5" r="2.5"/>
    <circle cx="18.5" cy="50.5" r="2.5"/>
    <circle cx="82.5" cy="50.5" r="2.5"/>
   </g>
   <g stroke-width=".099364">
    <circle cx="115.5" cy="51.5" r="3.5"/>
    <circle cx="51.5" cy="51.5" r="3.5"/>
    <circle cx="19.5" cy="83.5" r="3.5"/>
    <circle cx="83.5" cy="83.5" r="3.5"/>
   </g>
   <g stroke-width=".070975">
    <circle cx="114.5" cy="82.5" r="2.5"/>
    <circle cx="50.5" cy="82.5" r="2.5"/>
    <circle cx="18.5" cy="114.5" r="2.5"/>
    <circle cx="82.5" cy="114.5" r="2.5"/>
   </g>
   <circle cx="116.5" cy="116.5" r="4.5" stroke-width=".12775"/>
   <circle cx="52.5" cy="116.5" r="4.5" stroke-width=".12775"/>
  </g>
  <g fill="#8be95f" fill-opacity=".49275">
   <circle cx="7.6626" cy="11.066" r="4.5" stroke-width=".12775"/>
   <circle cx="71.663" cy="11.066" r="4.5" stroke-width=".12775"/>
   <g stroke-width=".070975">
    <circle cx="101.66" cy="9.0655" r="2.5"/>
    <circle cx="37.663" cy="9.0655" r="2.5"/>
    <circle cx="5.6626" cy="41.066" r="2.5"/>
    <circle cx="69.663" cy="41.066" r="2.5"/>
   </g>
   <g stroke-width=".099364">
    <circle cx="102.66" cy="42.066" r="3.5"/>
    <circle cx="38.663" cy="42.066" r="3.5"/>
    <circle cx="6.6626" cy="74.066" r="3.5"/>
    <circle cx="70.663" cy="74.066" r="3.5"/>
   </g>
   <g stroke-width=".070975">
    <circle cx="101.66" cy="73.066" r="2.5"/>
    <circle cx="37.663" cy="73.066" r="2.5"/>
    <circle cx="5.6626" cy="105.07" r="2.5"/>
    <circle cx="69.663" cy="105.07" r="2.5"/>
   </g>
   <circle cx="103.66" cy="107.07" r="4.5" stroke-width=".12775"/>
   <circle cx="39.663" cy="107.07" r="4.5" stroke-width=".12775"/>
  </g>
  <g fill="#e85a5a" fill-opacity=".44444">
   <circle cx="21.761" cy="6.9334" r="4.5" stroke-width=".12775"/>
   <circle cx="85.761" cy="6.9334" r="4.5" stroke-width=".12775"/>
   <g stroke-width=".070975">
    <circle cx="115.76" cy="4.9334" r="2.5"/>
    <circle cx="51.761" cy="4.9334" r="2.5"/>
    <circle cx="19.761" cy="36.933" r="2.5"/>
    <circle cx="83.761" cy="36.933" r="2.5"/>
   </g>
   <g stroke-width=".099364">
    <circle cx="116.76" cy="37.933" r="3.5"/>
    <circle cx="52.761" cy="37.933" r="3.5"/>
    <circle cx="20.761" cy="69.933" r="3.5"/>
    <circle cx="84.761" cy="69.933" r="3.5"/>
   </g>
   <g stroke-width=".070975">
    <circle cx="115.76" cy="68.933" r="2.5"/>
    <circle cx="51.761" cy="68.933" r="2.5"/>
    <circle cx="19.761" cy="100.93" r="2.5"/>
    <circle cx="83.761" cy="100.93" r="2.5"/>
   </g>
   <circle cx="117.76" cy="102.93" r="4.5" stroke-width=".12775"/>
   <circle cx="53.761" cy="102.93" r="4.5" stroke-width=".12775"/>
  </g>
 </g>
</svg>
